HIERARCHY
ROOT Hips
{
	OFFSET 0.000000 0.000000 0.000000
	CHANNELS 6 Xposition Yposition Zposition Zrotation Yrotation Xrotation 
	JOINT LHipJoint
	{
		OFFSET 0.000000 0.000000 0.000000
		CHANNELS 3 Zrotation Yrotation Xrotation
		JOINT LeftUpLeg
		{
			OFFSET 1.363060 -1.794630 0.839290
			CHANNELS 3 Zrotation Yrotation Xrotation
			JOINT LeftLeg
			{
				OFFSET 2.448110 -6.726130 0.000000
				CHANNELS 3 Zrotation Yrotation Xrotation
				JOINT LeftFoot
				{
					OFFSET 2.562200 -7.039590 0.000000
					CHANNELS 3 Zrotation Yrotation Xrotation
					JOINT LeftToeBase
					{
						OFFSET 0.157640 -0.433110 2.322550
						CHANNELS 3 Zrotation Yrotation Xrotation
						End Site
						{
							OFFSET 0.000000 0.000000 0.000000
						}
					}
				}
			}
		}
	}
	JOINT RHipJoint
	{
		OFFSET 0.000000 0.000000 0.000000
		CHANNELS 3 Zrotation Yrotation Xrotation
		JOINT RightUpLeg
		{
			OFFSET -1.305520 -1.794630 0.839290
			CHANNELS 3 Zrotation Yrotation Xrotation
			JOINT RightLeg
			{
				OFFSET -2.542530 -6.985550 0.000000
				CHANNELS 3 Zrotation Yrotation Xrotation
				JOINT RightFoot
				{
					OFFSET -2.568260 -7.056230 0.000000
					CHANNELS 3 Zrotation Yrotation Xrotation
					JOINT RightToeBase
					{
						OFFSET -0.164730 -0.452590 2.363150
						CHANNELS 3 Zrotation Yrotation Xrotation
						End Site
						{
							OFFSET 0.000000 0.000000 0.000000
						}
					}
				}
			}
		}
	}
	JOINT LowerBack
	{
		OFFSET 0.000000 0.000000 0.000000
		CHANNELS 3 Zrotation Yrotation Xrotation
		JOINT Spine
		{
			OFFSET 0.028270 2.035590 -0.193380
			CHANNELS 3 Zrotation Yrotation Xrotation
			JOINT Spine1
			{
				OFFSET 0.056720 2.048850 -0.042750
				CHANNELS 3 Zrotation Yrotation Xrotation
				JOINT Neck
				{
					OFFSET 0.000000 0.000000 0.000000
					CHANNELS 3 Zrotation Yrotation Xrotation
					JOINT Neck1
					{
						OFFSET -0.054170 1.746240 0.172020
						CHANNELS 3 Zrotation Yrotation Xrotation
						JOINT Head
						{
							OFFSET 0.104070 1.761360 -0.123970
							CHANNELS 3 Zrotation Yrotation Xrotation
							End Site
							{
								OFFSET 0.000000 0.000000 0.000000
							}
						}
					}
				}
				JOINT LeftShoulder
				{
					OFFSET 0.000000 0.000000 0.000000
					CHANNELS 3 Zrotation Yrotation Xrotation
					JOINT LeftArm
					{
						OFFSET 3.362410 1.200890 -0.311210
						CHANNELS 3 Zrotation Yrotation Xrotation
						JOINT LeftForeArm
						{
							OFFSET 4.983000 -0.000000 -0.000000
							CHANNELS 3 Zrotation Yrotation Xrotation
							JOINT LeftHand
							{
								OFFSET 3.483560 -0.000000 -0.000000
								CHANNELS 3 Zrotation Yrotation Xrotation
								JOINT LeftFingerBase
								{
									OFFSET 0.000000 0.000000 0.000000
									CHANNELS 3 Zrotation Yrotation Xrotation
									JOINT LeftHandIndex1
									{
										OFFSET 0.715260 -0.000000 -0.000000
										CHANNELS 3 Zrotation Yrotation Xrotation
										End Site
										{
											OFFSET 0.000000 0.000000 0.000000
										}
									}
								}
								JOINT LThumb
								{
									OFFSET 0.000000 0.000000 0.000000
									CHANNELS 3 Zrotation Yrotation Xrotation
									End Site
									{
										OFFSET 0.000000 0.000000 0.000000
									}
								}
							}
						}
					}
				}
				JOINT RightShoulder
				{
					OFFSET 0.000000 0.000000 0.000000
					CHANNELS 3 Zrotation Yrotation Xrotation
					JOINT RightArm
					{
						OFFSET -3.136600 1.374050 -0.404650
						CHANNELS 3 Zrotation Yrotation Xrotation
						JOINT RightForeArm
						{
							OFFSET -5.241900 -0.000000 -0.000000
							CHANNELS 3 Zrotation Yrotation Xrotation
							JOINT RightHand
							{
								OFFSET -3.444170 -0.000000 -0.000000
								CHANNELS 3 Zrotation Yrotation Xrotation
								JOINT RightFingerBase
								{
									OFFSET 0.000000 0.000000 0.000000
									CHANNELS 3 Zrotation Yrotation Xrotation
									JOINT RightHandIndex1
									{
										OFFSET -0.622530 -0.000000 -0.000000
										CHANNELS 3 Zrotation Yrotation Xrotation
										End Site
										{
											OFFSET 0.000000 0.000000 0.000000
										}
									}
								}
								JOINT RThumb
								{
									OFFSET 0.000000 0.000000 0.000000
									CHANNELS 3 Zrotation Yrotation Xrotation
									End Site
									{
										OFFSET 0.000000 0.000000 0.000000
									}
								}
							}
						}
					}
				}
			}
		}
	}
}
MOTION
Frames: 7
Frame Time: 0.008333
-4.318621 17.631664 23.369988 -5.093086 5.301448 9.860628 0.521500 -3.791427 -2.855721 -11.752487 5.293353 -20.460215 -0.557192 9.886733 24.588926 0.184738 2.870150 4.433820 1.140900 -6.782900 -19.073800 -2.335873 3.575405 -3.767753 23.602479 -4.110025 -17.792732 0.728923 -9.747914 22.812347 -4.379120 18.943958 5.181383 -0.246200 3.193100 -8.816900 4.310816 -0.097679 -8.059753 1.703414 -0.537412 -3.680475 0.252976 -0.585605 -8.704002 -22.068677 -23.943391 31.051001 20.528098 -50.096640 -8.837810 22.834000 -21.643000 1.533800 -8.120050 -8.318215 2.654306 -72.906834 0.348362 17.919023 19.030095 -25.370779 -5.559852 -0.041461 -0.409366 -37.022244 13.224079 -5.076044 -1.141900 -7.125000 0.000000 0.000000 -9.846500 25.077300 4.812800 6.776717 6.528821 2.225559 71.698922 10.419917 11.996682 -11.223633 19.380465 -2.723138 0.311673 0.614077 15.930474 -7.895030 -9.270537 1.395800 7.125000 0.000000 0.000000 16.447200 -39.490700 2.305900 
-4.321445 17.633293 23.362386 -5.115598 5.087800 9.922155 0.527617 -3.794104 -2.861173 -11.748500 5.349360 -20.538331 -0.550481 9.891236 24.599597 0.137126 3.020373 4.422413 1.141000 -6.783200 -19.074700 -2.331833 3.584270 -3.768528 23.604746 -3.968179 -17.855091 0.740945 -9.742565 22.783259 -4.381515 19.038244 5.267841 -0.243600 3.175900 -8.768900 4.309530 0.008076 -7.932431 1.674580 -0.384440 -3.683916 0.188251 -0.523979 -8.772590 -21.682504 -24.147019 30.860297 20.971223 -50.313026 -9.238618 22.248300 -21.643800 1.503600 -8.140788 -8.319466 2.677049 -72.716606 0.262942 18.325149 18.975938 -25.317212 -5.532254 -0.047486 -0.392183 -37.448263 13.313855 -5.347440 -1.219500 -7.125000 0.000000 0.000000 -9.763000 24.780900 4.839100 6.780381 6.565119 2.249431 71.661256 10.460245 12.214726 -11.170979 19.308636 -2.697041 0.297933 0.590804 15.324106 -8.218036 -8.741848 1.372400 7.125000 0.000000 0.000000 16.036300 -38.977700 2.453700 
-4.322531 17.633727 23.355762 -5.138868 5.133133 9.931770 0.531150 -3.798114 -2.869405 -11.718268 5.313402 -20.563836 -0.549264 9.894089 24.607615 0.138267 3.020235 4.460179 1.135500 -6.767500 -19.028300 -2.331129 3.585625 -3.768717 23.629177 -3.925633 -17.866598 0.744663 -9.741089 22.770709 -4.375582 18.936989 5.257007 -0.244900 3.184800 -8.793700 4.328716 -0.005277 -7.891604 1.668777 -0.400309 -3.678078 0.175626 -0.533480 -8.747126 -21.864732 -24.061704 30.852487 20.628013 -50.200584 -8.925889 22.781400 -21.666500 1.540300 -8.154344 -8.337212 2.677446 -72.546857 0.144363 18.688209 18.927214 -25.267857 -5.505648 -0.076377 -0.394731 -38.064660 13.567933 -5.288214 -1.235700 -7.125000 0.000000 0.000000 -9.556700 24.816400 4.726000 6.778167 6.551560 2.232621 71.545706 10.470151 13.136854 -11.227756 19.411856 -2.716231 0.328708 0.600952 14.122114 -8.561864 -9.166211 1.502900 7.125000 0.000000 0.000000 15.821500 -39.432900 2.236000 
-4.323182 17.632967 23.353481 -5.150066 5.201163 9.895849 0.532828 -3.797437 -2.872414 -11.698044 5.293895 -20.545322 -0.546417 9.899574 24.626943 0.157712 2.957838 4.458627 1.129000 -6.748700 -18.972900 -2.333965 3.583756 -3.770361 23.656956 -4.005420 -17.855440 0.744560 -9.737002 22.763992 -4.375157 18.955669 5.279951 -0.242400 3.168400 -8.747900 4.332030 -0.057527 -7.859894 1.679776 -0.468849 -3.662842 0.187377 -0.563002 -8.701893 -21.845893 -24.029645 30.792144 20.663414 -50.167540 -8.949831 22.828300 -21.644000 1.526000 -8.157180 -8.331281 2.685157 -72.439895 0.232115 19.077751 19.060457 -25.428845 -5.574934 -0.109658 -0.408719 -38.913516 13.963871 -5.187215 -1.253900 -7.125000 0.000000 0.000000 -9.239100 24.896000 4.547600 6.786391 6.545649 2.238997 71.312691 10.516480 14.558102 -11.278436 19.516392 -2.733881 0.386306 0.638138 12.877782 -8.734394 -10.211405 1.712900 7.125000 0.000000 0.000000 15.901300 -40.509800 1.812800 
-4.323943 17.632750 23.349029 -5.173647 5.216665 9.889306 0.535335 -3.798782 -2.877508 -11.670375 5.278412 -20.553761 -0.543286 9.903086 24.639570 0.158742 2.955390 4.468268 1.125200 -6.737700 -18.940500 -2.335543 3.584037 -3.771297 23.686595 -4.016521 -17.867183 0.747138 -9.735055 22.754984 -4.373722 18.957313 5.301536 -0.241100 3.159800 -8.724100 4.349270 -0.077059 -7.814849 1.683328 -0.494474 -3.654045 0.183821 -0.575334 -8.682698 -21.810915 -24.021115 30.724737 20.704421 -50.161802 -8.979320 22.856000 -21.633500 1.521500 -8.168194 -8.333160 2.695367 -72.279066 0.243891 19.528835 19.109047 -25.496505 -5.600991 -0.142013 -0.416198 -39.696663 14.319539 -5.144793 -1.283400 -7.125000 0.000000 0.000000 -8.951200 24.911500 4.399200 6.795649 6.545427 2.244677 71.093669 10.567574 15.751765 -11.281166 19.553827 -2.732817 0.425135 0.658418 11.913720 -8.962205 -10.820707 1.866700 7.125000 0.000000 0.000000 15.835900 -41.147700 1.548300 
-4.324268 17.632641 23.344902 -5.186967 5.241952 9.877210 0.536956 -3.800506 -2.882327 -11.653461 5.257847 -20.555222 -0.540432 9.908627 24.655847 0.161634 2.945952 4.470165 1.121100 -6.726000 -18.906000 -2.337170 3.583646 -3.772222 23.705064 -4.051563 -17.878702 0.748196 -9.732992 22.749480 -4.373625 18.973016 5.321994 -0.239500 3.149200 -8.694400 4.358513 -0.108816 -7.776683 1.690229 -0.536743 -3.643936 0.192046 -0.593065 -8.655357 -21.795278 -23.994898 30.660212 20.739267 -50.140791 -9.000013 22.892200 -21.618300 1.519000 -8.180319 -8.334458 2.705692 -72.106042 0.288745 20.045322 19.180178 -25.593459 -5.639589 -0.178582 -0.428083 -40.537836 14.730301 -5.063397 -1.307800 -7.125000 0.000000 0.000000 -8.619800 24.964700 4.221900 6.808142 6.542518 2.251297 70.818501 10.639013 17.086705 -11.255149 19.559951 -2.721137 0.465604 0.681367 11.096755 -9.142319 -11.466547 2.022400 7.125000 0.000000 0.000000 15.825300 -41.820300 1.276800 
-4.324486 17.632424 23.340232 -5.196742 5.258266 9.864781 0.537893 -3.802599 -2.886997 -11.640507 5.236994 -20.555365 -0.538059 9.913572 24.669666 0.161148 2.947421 4.471673 1.118200 -6.717400 -18.880900 -2.338805 3.583125 -3.773182 23.718201 -4.079315 -17.890295 0.749160 -9.731559 22.745520 -4.373506 18.990702 5.345557 -0.238000 3.139500 -8.667400 4.360597 -0.142873 -7.732303 1.698959 -0.581959 -3.633687 0.211809 -0.609727 -8.628041 -21.787416 -23.963537 30.588143 20.765275 -50.112842 -9.010804 22.921900 -21.601400 1.520900 -8.193800 -8.335964 2.716259 -71.913445 0.366398 20.641391 19.274999 -25.720486 -5.691176 -0.217055 -0.443866 -41.399591 15.175608 -4.954751 -1.327100 -7.125000 0.000000 0.000000 -8.260800 25.045500 4.026800 6.823268 6.538856 2.258872 70.498065 10.735293 18.489622 -11.201688 19.532350 -2.698856 0.503064 0.705525 10.488581 -9.234390 -12.074002 2.155600 7.125000 0.000000 0.000000 15.889600 -42.448200 1.028800 
